<svg fill="none" height="10" viewBox="0 0 12 10" width="12" xmlns="http://www.w3.org/2000/svg">
    <path
        d="M2.14286 0C1.57454 0 1.02949 0.203829 0.627628 0.566648C0.225765 0.929467 0 1.42155 0 1.93466V5.80397C0 6.05804 0.0554266 6.30961 0.163115 6.54433C0.270804 6.77906 0.428646 6.99233 0.627628 7.17198C1.02949 7.5348 1.57454 7.73863 2.14286 7.73863H2.57143V9.24147C2.5714 9.38715 2.61784 9.52976 2.70521 9.65224C2.79258 9.77472 2.91717 9.87188 3.06408 9.93212C3.211 9.99236 3.37402 10.0131 3.53366 9.99193C3.6933 9.97073 3.8428 9.90847 3.96429 9.81258L6.58971 7.73863H9.85714C10.1385 7.73863 10.4172 7.68859 10.6772 7.59136C10.9372 7.49414 11.1734 7.35163 11.3724 7.17198C11.5714 6.99233 11.7292 6.77906 11.8369 6.54433C11.9446 6.30961 12 6.05804 12 5.80397V1.93466C12 1.42155 11.7742 0.929467 11.3724 0.566648C10.9705 0.203829 10.4255 0 9.85714 0H2.14286Z"
        fill="black" />
</svg>
