<svg fill="none" height="13" viewBox="0 0 13 13" width="13" xmlns="http://www.w3.org/2000/svg">
    <g clip-path="url(#clip0_1167_16769)">
        <path
            d="M10.2916 8.66663H12.4583V2.16663H10.2916M8.12496 2.16663H3.24996C2.80038 2.16663 2.41579 2.43746 2.25329 2.82746L0.617459 6.64621C0.568709 6.77079 0.541626 6.90079 0.541626 7.04163V8.12496C0.541626 8.41228 0.655763 8.68783 0.858927 8.89099C1.06209 9.09416 1.33764 9.20829 1.62496 9.20829H5.04288L4.52829 11.6837C4.51746 11.7379 4.51204 11.792 4.51204 11.8516C4.51204 12.0791 4.60413 12.2795 4.75038 12.4258L5.32454 13L8.88871 9.43038C9.08913 9.23538 9.20829 8.96454 9.20829 8.66663V3.24996C9.20829 2.96264 9.09416 2.68709 8.89099 2.48393C8.68783 2.28076 8.41228 2.16663 8.12496 2.16663Z"
            fill="black" />
    </g>
    <defs>
        <clipPath id="clip0_1167_16769">
            <rect fill="white" height="13" width="13" />
        </clipPath>
    </defs>
</svg>
