<svg fill="none" height="27" viewBox="0 0 27 27" width="27" xmlns="http://www.w3.org/2000/svg">
    <path clip-rule="evenodd" d="M18.4093 9.81827C18.4093 11.1202 17.8921 12.3689 16.9715 13.2895C16.0508 14.2102 14.8022 14.7274 13.5002 14.7274C12.1982 14.7274 10.9496 14.2102 10.029 13.2895C9.10833 12.3689 8.59113 11.1202 8.59113 9.81827C8.59113 8.5163 9.10833 7.26765 10.029 6.34702C10.9496 5.42639 12.1982 4.90918 13.5002 4.90918C14.8022 4.90918 16.0508 5.42639 16.9715 6.34702C17.8921 7.26765 18.4093 8.5163 18.4093 9.81827ZM15.9548 9.81827C15.9548 10.4693 15.6962 11.0936 15.2358 11.5539C14.7755 12.0142 14.1512 12.2728 13.5002 12.2728C12.8492 12.2728 12.2249 12.0142 11.7646 11.5539C11.3043 11.0936 11.0457 10.4693 11.0457 9.81827C11.0457 9.16728 11.3043 8.54296 11.7646 8.08264C12.2249 7.62233 12.8492 7.36372 13.5002 7.36372C14.1512 7.36372 14.7755 7.62233 15.2358 8.08264C15.6962 8.54296 15.9548 9.16728 15.9548 9.81827Z"
        fill="#090C9B"
        fill-rule="evenodd" />
    <path clip-rule="evenodd" d="M13.5 0C6.04432 0 0 6.04432 0 13.5C0 20.9557 6.04432 27 13.5 27C20.9557 27 27 20.9557 27 13.5C27 6.04432 20.9557 0 13.5 0ZM2.45455 13.5C2.45455 16.065 3.32959 18.4263 4.79618 20.3015C5.82615 18.949 7.15488 17.8528 8.67858 17.0987C10.2023 16.3447 11.8797 15.9531 13.5798 15.9545C15.2579 15.953 16.9142 16.3344 18.4225 17.0699C19.9308 17.8053 21.2514 18.8754 22.2836 20.1985C23.347 18.8038 24.0629 17.1759 24.3723 15.4496C24.6816 13.7233 24.5754 11.9482 24.0625 10.271C23.5496 8.5939 22.6447 7.06301 21.4226 5.80505C20.2006 4.54708 18.6966 3.59819 17.035 3.0369C15.3734 2.4756 13.6021 2.31804 11.8676 2.57724C10.133 2.83644 8.48511 3.50496 7.06022 4.52747C5.63533 5.54999 4.4744 6.89711 3.67351 8.45738C2.87261 10.0176 2.45477 11.7462 2.45455 13.5ZM13.5 24.5455C10.9644 24.5493 8.50533 23.677 6.53891 22.0762C7.33041 20.9431 8.38391 20.0179 9.60978 19.3795C10.8356 18.741 12.1976 18.4081 13.5798 18.4091C14.9447 18.408 16.2902 18.7326 17.5045 19.3558C18.7188 19.9791 19.7669 20.8831 20.5617 21.9927C18.58 23.6455 16.0804 24.5491 13.5 24.5455Z"
        fill="#090C9B"
        fill-rule="evenodd" />
</svg>
