<svg fill="none" height="13" viewBox="0 0 13 13" width="13" xmlns="http://www.w3.org/2000/svg">
    <path
        d="M2.70837 4.33337H0.541707V10.8334H2.70837M4.87504 10.8334H9.75004C10.1996 10.8334 10.5842 10.5625 10.7467 10.1725L12.3825 6.35379C12.4313 6.22921 12.4584 6.09921 12.4584 5.95837V4.87504C12.4584 4.58772 12.3442 4.31217 12.1411 4.10901C11.9379 3.90584 11.6624 3.79171 11.375 3.79171H7.95712L8.47171 1.31629C8.48254 1.26213 8.48796 1.20796 8.48796 1.14838C8.48796 0.920876 8.39587 0.720458 8.24962 0.574208L7.67546 4.19617e-05L4.11129 3.56962C3.91087 3.76462 3.79171 4.03546 3.79171 4.33337V9.75004C3.79171 10.0374 3.90584 10.3129 4.10901 10.5161C4.31217 10.7192 4.58772 10.8334 4.87504 10.8334Z"
        fill="black" />
</svg>
